<?xml version="1.0" standalone="no"?>
<!DOCTYPE svg PUBLIC "-//W3C//DTD SVG 20010904//EN"
 "http://www.w3.org/TR/2001/REC-SVG-20010904/DTD/svg10.dtd">
<svg version="1.0" xmlns="http://www.w3.org/2000/svg"
 width="155.000000pt" height="300.000000pt" viewBox="0 0 155.000000 300.000000"
 preserveAspectRatio="xMidYMid meet">
<metadata>
Created by potrace 1.10, written by Peter Selinger 2001-2011
</metadata>
<g transform="translate(0.000000,300.000000) scale(0.100000,-0.100000)"
fill="#000000" stroke="none">
<path d="M246 2970 c3 -18 29 -99 56 -180 152 -443 191 -556 228 -665 23 -66
87 -250 142 -410 55 -159 115 -335 134 -390 19 -55 37 -124 41 -152 l6 -52
-39 18 c-89 43 -260 55 -369 26 -200 -52 -362 -209 -420 -408 -9 -31 -15 -69
-13 -84 2 -22 10 -8 32 59 36 111 69 167 144 248 104 113 273 183 417 174 96
-6 119 -10 144 -24 13 -6 52 -13 87 -15 57 -2 64 -1 58 14 -3 9 -10 37 -14 62
-5 26 -47 161 -95 300 -48 140 -88 262 -90 272 -2 9 -6 21 -9 26 -3 5 -40 110
-82 232 -41 123 -82 238 -89 254 -7 17 -19 50 -25 75 -7 25 -16 54 -20 65 -4
11 -13 36 -20 55 -7 19 -16 44 -20 55 -12 31 -82 235 -96 283 -12 40 -12 42 5
33 10 -6 24 -17 32 -27 55 -67 373 -233 524 -274 200 -54 353 -159 496 -339
35 -44 108 -216 110 -260 0 -9 9 -34 20 -56 l19 -40 -4 66 c-16 227 -207 478
-453 594 -29 14 -112 46 -185 71 -292 101 -496 228 -627 389 l-32 40 7 -35z"/>
<path d="M702 2284 c-29 -20 -29 -64 2 -145 13 -35 44 -125 69 -199 60 -177
136 -397 241 -704 86 -250 99 -295 74 -265 -7 8 -22 22 -33 29 -11 8 -3 -5 19
-29 21 -24 52 -73 69 -110 31 -64 31 -70 31 -206 0 -77 -3 -157 -7 -178 -18
-94 -94 -218 -187 -305 -40 -37 -186 -110 -275 -138 -78 -24 -41 -32 47 -9
105 27 203 80 272 148 132 130 177 235 184 423 4 131 -9 219 -54 344 -12 36
-75 218 -139 405 -64 187 -162 469 -216 626 -54 158 -99 290 -99 294 0 12 183
-2 265 -20 113 -24 227 -86 310 -169 113 -113 165 -228 223 -491 l9 -40 16 72
c15 65 23 167 10 136 -12 -31 -32 -7 -62 75 -90 240 -268 401 -498 452 -110
24 -239 26 -271 4z"/>
<path d="M964 1070 c31 -22 59 -40 62 -40 7 0 -45 42 -78 63 -52 32 -41 17 16
-23z"/>
<path d="M352 1058 c-11 -13 -25 -35 -31 -50 -7 -18 -27 -35 -63 -52 -65 -31
-80 -53 -68 -96 7 -24 5 -40 -5 -61 -35 -66 -8 -109 68 -109 46 0 67 -12 87
-51 7 -13 21 -19 45 -19 29 0 41 8 81 55 45 52 50 55 94 55 79 0 98 41 59 124
-17 38 -19 48 -8 68 21 38 19 71 -4 96 -19 20 -27 22 -73 17 -39 -5 -54 -3
-67 9 -8 9 -20 16 -26 16 -6 0 -11 5 -11 10 0 19 -56 10 -78 -12z m93 -32 l33
-35 50 14 c46 11 52 11 66 -4 14 -15 13 -22 -9 -68 -19 -41 -21 -54 -11 -62 7
-6 21 -29 31 -51 15 -33 16 -42 4 -56 -11 -13 -24 -15 -70 -10 -55 7 -57 6
-68 -22 -17 -40 -75 -95 -96 -90 -10 2 -24 20 -32 42 -7 22 -14 41 -16 42 -1
2 -23 -2 -47 -7 -90 -20 -118 16 -60 76 30 31 30 31 10 50 -11 10 -20 26 -20
37 0 24 56 58 98 58 26 0 32 4 32 20 0 32 39 100 57 100 8 0 30 -15 48 -34z"/>
<path d="M396 1000 c-3 -8 -12 -33 -19 -55 -13 -37 -17 -40 -60 -47 -65 -9
-76 -18 -38 -34 38 -16 39 -30 6 -56 -14 -11 -29 -27 -34 -37 -9 -16 -6 -16
39 -7 56 11 75 2 85 -45 4 -16 9 -29 12 -29 9 0 31 31 54 73 20 39 21 39 75
35 30 -1 54 0 54 4 0 3 -11 20 -25 36 -30 36 -31 42 -5 92 23 44 19 47 -35 24
l-38 -15 -33 38 c-24 28 -34 34 -38 23z m41 -71 c9 -9 30 -16 58 -18 5 -1 5
-5 -2 -12 -7 -7 -21 -4 -47 11 -20 12 -36 24 -36 26 0 8 16 4 27 -7z m18 -50
c12 -19 -4 -55 -30 -67 -49 -22 -77 11 -44 52 21 27 62 35 74 15z"/>
<path d="M14 480 c22 -165 158 -343 322 -420 68 -32 132 -50 179 -49 21 0 4 9
-57 30 -218 73 -342 196 -413 408 -15 45 -29 81 -32 81 -3 0 -3 -23 1 -50z"/>
</g>
</svg>
